<?xml version="1.0" encoding="UTF-8"?> <svg xmlns="http://www.w3.org/2000/svg" width="166" height="48" viewBox="0 0 166 48" fill="none"><path d="M68.9703 35L78.3577 8.6704H83.5189L92.9063 35H87.2963L85.3515 29.3152H76.3381L74.4307 35H68.9703ZM77.9837 24.528H83.7059L80.8635 16.0008L77.9837 24.528ZM95.8615 35V8.82H105.585C108.503 8.82 110.934 9.6054 112.43 11.1014C113.589 12.2982 114.187 13.7194 114.187 15.552V15.6642C114.187 18.731 112.504 20.3766 110.634 21.3864C113.439 22.471 115.309 24.1914 115.309 27.6322V27.8192C115.309 32.5316 111.532 35 105.847 35H95.8615ZM108.839 16.5618V16.5244C108.839 14.617 107.493 13.6072 105.174 13.6072H101.135V19.5164H104.912C107.306 19.5164 108.839 18.544 108.839 16.5618ZM109.961 27.1086C109.961 25.2386 108.577 24.0792 105.885 24.0792H101.135V30.2128H105.997C108.428 30.2128 109.961 29.1656 109.961 27.146V27.1086ZM118.944 35V8.82H128.78C131.81 8.82 134.241 9.6802 135.886 11.3258C137.308 12.747 138.093 14.804 138.093 17.3846V17.5342C138.093 21.4986 136.111 24.0044 133.231 25.276L138.804 35H132.595L127.771 26.398H124.367V35H118.944ZM124.367 21.6108H128.369C131.137 21.6108 132.633 20.04 132.633 17.6838V17.6464C132.633 15.0284 131.024 13.7194 128.257 13.7194H124.367V21.6108ZM140.118 35L149.505 8.6704H154.667L164.054 35H158.444L156.499 29.3152H147.486L145.578 35H140.118ZM149.131 24.528H154.854L152.011 16.0008L149.131 24.528Z" fill="#343B4E"></path><path d="M43.6205 7.26958L64.5145 43.6426H42.9155L32.8345 26.0076L43.6205 7.26958Z" fill="#343B4E"></path><mask id="mask0_14_60" style="mask-type:luminance" maskUnits="userSpaceOnUse" x="32" y="7" width="33" height="37"><path d="M32.9258 25.9339V26.1339L42.9258 43.5339H64.5258L43.6258 7.23389L32.9258 25.9339Z" fill="white"></path></mask><g mask="url(#mask0_14_60)"><path d="M1124.92 -874.179L6774.21 8990.04L153.334 12781.8L-5495.96 2917.63L1124.92 -874.179Z" fill="url(#paint0_linear_14_60)"></path></g><path d="M21.419 6.09658L0 43.6426H21.419L42.826 6.09658H21.419Z" fill="#343B4E"></path><defs><linearGradient id="paint0_linear_14_60" x1="29.077" y1="22.8306" x2="46.7882" y2="53.7562" gradientUnits="userSpaceOnUse"><stop stop-color="#EA4C6B"></stop><stop offset="0.172619" stop-color="#EA4E6A"></stop><stop offset="0.302381" stop-color="#EC6068"></stop><stop offset="0.502381" stop-color="#EF7760"></stop><stop offset="0.627381" stop-color="#F08458"></stop><stop offset="0.732143" stop-color="#F28E4F"></stop><stop offset="0.79881" stop-color="#F39548"></stop><stop offset="0.941667" stop-color="#F6A337"></stop><stop offset="1" stop-color="#F7A82D"></stop></linearGradient></defs></svg> 