<svg xmlns="http://www.w3.org/2000/svg" role="img" aria-label="Xero" viewBox="0 0 79 22" fill="#1AB4D7">
  <title>Xero</title>
  <path d="M55.3255 0.364067C53.3562 0.364067 51.2569 1.89954 50.1834 5.24214V2.37301C50.1834 1.26524 49.286 0.364044 48.1829 0.364044C47.0798 0.364044 46.1824 1.26524 46.1824 2.37301L46.1824 19.674C46.1824 20.7818 47.0798 21.6829 48.1829 21.6829C49.2859 21.6829 50.1833 20.7818 50.1833 19.674V11.5478C50.1834 7.63939 52.381 5.32117 55.7557 4.5614C56.8342 4.31856 57.5042 3.50107 57.5042 2.42783C57.5042 1.21269 56.6083 0.364067 55.3255 0.364067Z"/>
  <path d="M68.0363 0.364075C62.1836 0.364075 57.4221 5.14588 57.4221 11.0235C57.4221 16.9011 62.1836 21.683 68.0363 21.683C73.889 21.683 78.6505 16.9012 78.6505 11.0235C78.6505 5.14581 73.889 0.364075 68.0363 0.364075ZM68.0363 17.6666C64.3888 17.6666 61.4214 14.6865 61.4214 11.0235C61.4214 7.36055 64.3889 4.3805 68.0363 4.3805C71.6837 4.3805 74.6512 7.36053 74.6512 11.0235C74.6512 14.6865 71.6837 17.6666 68.0363 17.6666Z"/>
  <path d="M68.0363 8.36847C66.5785 8.36847 65.3926 9.55946 65.3926 11.0235C65.3926 12.4875 66.5785 13.6785 68.0363 13.6785C69.4941 13.6785 70.6801 12.4875 70.6801 11.0235C70.6801 9.55946 69.4941 8.36847 68.0363 8.36847Z"/>
  <path d="M32.4995 0.364075C26.6443 0.364075 21.8809 5.14588 21.8809 11.0235C21.8809 16.9543 26.5035 21.6829 32.8975 21.6829C36.0184 21.6829 38.5947 20.73 40.7736 18.7698C41.009 18.5332 41.4101 18.021 41.4101 17.289C41.4101 16.181 40.5893 15.3455 39.5006 15.3455C38.939 15.3455 38.622 15.5072 38.2643 15.7867C36.6907 17.0882 34.9619 17.7216 32.9811 17.7216C29.6026 17.7216 26.8421 15.7256 26.0863 12.7169L40.7564 12.717C42.109 12.7117 43.0897 11.6165 43.0897 10.1088C43.0897 6.46305 39.5304 0.364075 32.4995 0.364075ZM26.0804 9.32426C26.7907 6.38199 29.3253 4.28272 32.4995 4.28272C35.6277 4.28272 38.1851 6.15931 38.9123 9.32426H26.0804Z"/>
  <path d="M21.3109 2.34835C21.3109 1.25028 20.4247 0.364075 19.3352 0.364075C18.8074 0.364075 18.3113 0.570469 17.9381 0.945268L10.6968 8.21715L3.45563 0.945268C3.08244 0.570492 2.58627 0.364075 2.0585 0.364075C0.969019 0.364075 0.0827637 1.25028 0.0827637 2.34835C0.0827637 2.87836 0.288237 3.37665 0.661422 3.75138L7.9026 11.0233L0.661422 18.2951C0.288282 18.6699 0.0827637 19.1681 0.0827637 19.6982C0.0827637 20.7958 0.96666 21.6824 2.05855 21.6824C2.58627 21.6824 3.08249 21.476 3.45567 21.1012L10.6968 13.8294L17.938 21.1012C18.3112 21.476 18.8074 21.6824 19.3351 21.6824C20.427 21.6824 21.3109 20.7958 21.3109 19.6982C21.3109 19.1681 21.1054 18.6699 20.7323 18.2951L13.4911 11.0232L20.7323 3.75136C21.1055 3.37663 21.3109 2.87839 21.3109 2.34835Z"/>
</svg>
