<svg viewBox="0 0 844 226" xmlns="http://www.w3.org/2000/svg"><g fill="#1a1919" fill-rule="evenodd"><path d="m133.987 144.062c0 7.213 5.85 11.506 16 11.506 9.982 0 14.8-4.808 14.8-14.255v-8.928h-8.257c-17.557 0-22.543 4.118-22.543 11.677"/><path d="m116.961 15.485c-55.673 0-100.811 35.81-100.811 79.987v35.817c0 44.176 45.138 79.993 100.811 79.993s100.8-35.817 100.8-79.993v-35.817c0-44.176-45.127-79.987-100.8-79.987zm-32.724 118.502h-9.982v38.754h-9.288c-7.404 0-13.943-5.666-13.943-13.741v-61.213c0-18.895 8.78-42.555 35.152-48.415 26.695-5.932 34.16 7.123 34.16 7.123s-16.702-.229-29.789 9.982c-7.45 5.812-16.03 18.628-16.292 33.202v18.004c16.48 3.155 29.671-2.32 33.562-4.05l.668-.084s-1.182 20.438-24.248 20.438zm103.094 7.154c0 19.58-14.452 33.144-35.104 33.144h-4.648c-22.027 0-37.172-12.362-37.172-29.364 0-16.486 12.046-29.021 46.123-29.021h8.085v-1.206c0-13.05-6.194-22.325-19.964-22.325-16.692 0-25.98 6.353-29.426 10.648h-.858v-7.384c0-10.304 9.294-22.666 33.728-22.666 20.652 0 39.236 14.94 39.236 46.88zm121.741-55.939h-28.957v23.507h33.896v5.67c0 6.084-4.802 9.404-9.058 9.404h-24.152v40.378h-7.823c-6.861 0-10.978-3.596-10.978-11.062v-69.004c0-11.754 4.665-14.657 15.645-14.657h42.13v5.946c0 4.424-3.294 9.818-10.703 9.818m55.058 46.16h-6.598c-14.021 0-18.008 3.316-18.008 9.395 0 5.805 4.675 9.26 12.785 9.26 7.972 0 11.821-3.869 11.821-11.47zm-10.035 33.718h-3.712c-17.594 0-29.69-9.949-29.69-23.631 0-13.267 9.621-23.354 36.84-23.354h6.46v-.968c0-10.501-4.949-13.682-15.945-13.682-13.335 0-20.757 5.115-23.506 8.569h-.687v-5.943c0-8.29 7.422-18.24 26.942-18.24 16.494 0 31.34 7.737 31.34 33.442v17.136c0 15.754-11.546 26.671-28.042 26.671zm55.039-87.903v44.645c7.22-9.428 14.3-18.994 22.908-27.174 4.444-4.16 8.886-4.853 14.857-4.853h10.69v.694c-5.275 4.436-22.632 24.123-30.405 33.967 5.969 7.348 11.801 14.974 18.464 21.767 6.805 6.794 9.859 8.18 14.44 9.707-1.943 5.96-4.997 9.15-12.634 9.15-4.165 0-9.025-1.941-12.218-5.131-9.58-9.843-17.911-20.935-26.102-31.889v36.465l-5.97.138c-8.607.14-12.774-4.436-12.774-13.171v-86.653h5.971c9.025 0 12.773 5.13 12.773 12.338m61.821 1.085c2.476-2.92 5.779-5.146 8.667-5.146h4.264v16.964h25.724v7.648c0 3.894-3.438 8.9-11.005 8.9h-14.719v29.34c0 9.731 4.264 13.487 11.693 13.487 5.915 0 10.455-.836 13.344-2.642h.687v6.673c0 7.648-5.503 12.514-16.232 12.514-18.708 0-27.788-10.289-27.788-27.809v-45.05c0-7.37 1.376-10.152 5.365-14.879m80.518 87.738c-18.269 0-32.693-12.168-32.693-33.878v-42.452h3.435c10.576 0 15.247 4.564 15.247 13.275v27.38c0 13.69 6.594 19.22 14.973 19.22 7.556 0 12.913-5.255 12.913-17.977v-41.898h3.298c10.713 0 15.247 4.564 15.247 13.275v27.932c0 23.23-10.852 35.123-32.42 35.123m86.75-58.432c-2.77-1.107-5.958-2.214-10.808-2.214-8.317 0-12.892 4.565-12.892 15.912v42.895h-5.126c-8.316 0-13.582-4.151-13.582-11.9v-34.315c0-14.945 7.9-29.196 27.58-29.196 11.503 0 15.522 6.502 15.522 12.176v6.642zm37.004-3.106c-10.689 0-16.101 8.87-16.101 21.206 0 14.831 5.412 23.7 17.764 23.7 10.827 0 16.102-8.869 16.102-21.067 0-14.968-5.553-23.84-17.765-23.84zm1.663-16.632c22.485 0 35.393 18.018 35.393 37.838 0 22.453-12.908 40.332-37.056 40.332-22.485 0-35.393-17.879-35.393-37.699 0-22.453 12.908-40.47 37.056-40.47zm67.476 78.17c-14.325 0-22.177-8.212-22.177-23.384v-50.803h5.235c8.262 0 13.223 4.452 13.223 13.918v35.076c0 7.515 3.168 9.881 11.294 9.881h3.444v4.037c0 8.074-3.167 11.275-11.019 11.275zm-13.086-81.148c-5.923 0-10.743-5.01-10.743-10.995 0-5.986 4.82-10.857 10.743-10.857s10.88 4.87 10.88 10.857c0 5.984-4.957 10.995-10.88 10.995zm57.89 18.82c-9.416 0-15.508 9.121-15.508 21.146 0 15.477 8.03 25.566 18.691 25.566 10.385 0 14.955-7.739 14.955-21.282 0-18.657-8.169-25.43-18.139-25.43zm.967 62.328c-19.66 0-34.752-17.137-34.752-37.59 0-24.462 11.908-40.354 33.644-40.354 7.48 0 15.648 5.252 18.556 11.747v-34.963h5.676c8.862 0 12.739 5.113 12.739 12.575v52.516c0 21.698-10.246 36.07-35.863 36.07z"/></g></svg>