<?xml version="1.0" encoding="UTF-8"?>
<svg id="Layer_1" xmlns="http://www.w3.org/2000/svg" version="1.1" viewBox="0 0 310.7 84.8">
  <!-- Generator: Adobe Illustrator 29.4.0, SVG Export Plug-In . SVG Version: 2.1.0 Build 152)  -->
  <defs>
    <style>
      .st0 {
        fill: #80d4f2;
      }

      .st1 {
        fill: #d7de23;
      }

      .st2 {
        fill: #020044;
      }

      .st3 {
        fill: #fff;
      }

      .st4 {
        fill: #059045;
      }

      .st5 {
        fill: #07a79b;
      }

      .st6 {
        fill: #8ac440;
      }

      .st7 {
        fill: #25b374;
      }

      .st8 {
        fill: #2aa9e0;
      }

      .st9 {
        fill: #006837;
      }

      .st10 {
        fill: #fbec23;
      }

      .st11 {
        fill: #e24e42;
      }

      .st12 {
        fill: #3ab34b;
      }
    </style>
  </defs>
  <g>
    <path class="st2" d="M103.8,42.1c-1.1-1.3-1.7-3-1.7-5.1s.4-2.6,1.2-3.9c.8-1.2,2-2.2,3.6-3,1.6-.8,3.4-1.1,5.4-1.1s3.9.3,5.4.9c1.6.6,2.8,1.4,3.7,2.4.9,1,1.3,2,1.4,3.1,0,.4,0,.7-.4.9-.3.3-.6.4-1,.4h-3.8c-.4,0-.7,0-.9-.2-.2-.1-.5-.3-.7-.5-.4-.3-.9-.6-1.4-.8-.5-.2-1.3-.3-2.3-.3s-2,.2-2.7.5c-.7.3-1.1.8-1.1,1.5s.2.9.5,1.2c.3.3.9.5,1.8.7.9.2,2.4.6,4.7,1.1,2.8.6,4.9,1.6,6.1,2.9,1.3,1.3,1.9,3,1.9,5.1s-.4,2.6-1.3,3.8c-.9,1.2-2.2,2.2-3.8,2.9-1.7.7-3.6,1.1-5.8,1.1s-4.1-.3-5.8-1c-1.6-.7-2.9-1.5-3.8-2.6-.9-1.1-1.3-2.1-1.4-3.3,0-.4,0-.7.4-.9.3-.3.6-.4,1-.4h3.8c.4,0,.7,0,.9.2.2.1.5.3.7.6.5.5,1,.8,1.5,1.1.6.3,1.4.4,2.6.4s2.2-.2,3.2-.5c.9-.3,1.4-.8,1.4-1.5s-.2-.8-.5-1c-.3-.2-.8-.5-1.5-.7-.7-.2-1.9-.5-3.6-.8l-1.9-.4c-2.8-.6-4.7-1.6-5.8-2.9"/>
    <path class="st2" d="M138.3,29.8c1.1-.5,2.3-.8,3.5-.8,3.8,0,6.6,1.4,8.2,4.2.9-1.3,2-2.3,3.5-3.1,1.5-.8,3-1.1,4.5-1.1,3.5,0,6,1.1,7.6,3.2,1.5,2.1,2.3,4.9,2.3,8.4v13.3c0,.4-.1.7-.4.9-.3.3-.6.4-.9.4h-3.8c-.4,0-.7-.1-.9-.4-.3-.3-.4-.6-.4-.9v-13.1c0-2.1-.4-3.7-1.2-4.6-.8-.9-2-1.4-3.7-1.4s-2.6.5-3.5,1.4c-.9.9-1.4,2.4-1.4,4.4v13.3c0,.4-.1.7-.4.9-.3.3-.6.4-.9.4h-3.8c-.4,0-.7-.1-.9-.4-.3-.3-.4-.6-.4-.9v-13.1c0-2.1-.4-3.7-1.2-4.6-.8-.9-2-1.4-3.7-1.4s-2.6.5-3.5,1.5c-.9,1-1.4,2.5-1.4,4.6v13.1c0,.4-.1.7-.4.9-.3.3-.6.4-.9.4h-3.8c-.4,0-.7-.1-.9-.4-.3-.3-.4-.6-.4-.9v-23.1c0-.4.1-.7.4-.9.3-.3.6-.4.9-.4h3.8c.4,0,.7.1.9.4.3.3.4.6.4.9v1.1c.8-1,1.8-1.7,2.9-2.2"/>
    <path class="st2" d="M213,36.8c-.9.9-1.3,2.3-1.3,4.3v12.9c0,.4-.1.7-.4.9-.3.3-.6.4-.9.4h-3.8c-.4,0-.7-.1-.9-.4-.3-.3-.4-.6-.4-.9v-23.1c0-.4.1-.7.4-.9.3-.3.6-.4.9-.4h3.8c.4,0,.7.1.9.4.3.3.4.6.4.9v1.1c.9-.9,1.8-1.5,2.8-1.9,1-.4,2.2-.6,3.8-.6h2.2c.4,0,.7.1.9.4.3.3.4.6.4.9v3.3c0,.4-.1.7-.4.9-.3.3-.6.4-.9.4h-3.2c-2,0-3.4.4-4.3,1.3"/>
    <path class="st2" d="M225.7,29.5v-8.1c0-.4.1-.7.4-.9.3-.3.6-.4.9-.4h3.8c.4,0,.7.1.9.4.3.3.4.6.4.9v8.1h6.4c.4,0,.7.1.9.4.3.3.4.6.4.9v3.3c0,.4-.1.7-.4.9-.3.3-.6.4-.9.4h-6.4v10.5c0,1.1.3,1.9.9,2.5.6.6,1.6.9,3,.9h3c.4,0,.7.1.9.4.3.3.4.6.4.9v3.3c0,.4-.1.7-.4.9-.3.3-.6.4-.9.4h-3.7c-3.1,0-5.5-.8-7.2-2.3-1.7-1.5-2.5-3.8-2.5-6.9v-16.6Z"/>
    <path class="st2" d="M270.3,42.4c0,.8,0,1.4,0,1.7,0,2.1-.6,4-1.5,5.8-.9,1.8-2.2,3.2-3.8,4.3-1.6,1.1-3.5,1.6-5.7,1.6s-3.4-.3-4.6-.9c-1.2-.6-2.2-1.3-2.9-2.1v1.1c0,.4-.1.7-.4.9-.3.3-.6.4-.9.4h-3.8c-.4,0-.7-.1-.9-.4-.3-.3-.4-.6-.4-.9V21.4c0-.4.1-.7.4-.9.3-.3.6-.4.9-.4h3.8c.4,0,.7.1.9.4.3.3.4.6.4.9v10.6c.7-.8,1.7-1.5,2.9-2.1,1.2-.6,2.7-.9,4.6-.9s4,.5,5.7,1.6c1.6,1.1,2.9,2.5,3.8,4.3.9,1.8,1.4,3.7,1.5,5.8,0,.3,0,.9,0,1.7M253.6,36.5c-1.1,1-1.7,2.4-1.9,4,0,.3,0,1,0,1.9s0,1.6,0,1.9c.2,1.8.8,3.1,1.9,4.1,1.1,1,2.5,1.5,4.1,1.5s3.1-.5,4.2-1.5c1.1-1,1.7-2.5,1.9-4.6,0-.7,0-1.1,0-1.4,0-2.5-.6-4.4-1.7-5.6-1.1-1.2-2.6-1.8-4.5-1.8s-3,.5-4.1,1.5"/>
    <path class="st2" d="M282.2,20.5c.3.3.4.6.4.9v3.9c0,.4-.1.7-.4.9-.3.3-.6.4-.9.4h-4.3c-.4,0-.7-.1-.9-.4-.3-.3-.4-.6-.4-.9v-3.9c0-.4.1-.7.4-.9.3-.3.6-.4.9-.4h4.3c.4,0,.7.1.9.4M282,54.9c-.3.3-.6.4-.9.4h-3.8c-.4,0-.7-.1-.9-.4-.3-.3-.4-.6-.4-.9v-23.1c0-.4.1-.7.4-.9.3-.3.6-.4.9-.4h3.8c.4,0,.7.1.9.4.3.3.4.6.4.9v23.1c0,.4-.1.7-.4.9"/>
    <path class="st2" d="M295.3,54.9c-.3.3-.6.4-.9.4h-3.8c-.4,0-.7-.1-.9-.4-.3-.3-.4-.6-.4-.9V21.4c0-.4.1-.7.4-.9.3-.3.6-.4.9-.4h3.8c.4,0,.7.1.9.4.3.3.4.6.4.9v32.5c0,.4-.1.7-.4.9"/>
    <path class="st2" d="M308.6,54.9c-.3.3-.6.4-.9.4h-3.8c-.4,0-.7-.1-.9-.4-.3-.3-.4-.6-.4-.9V21.4c0-.4.1-.7.4-.9.3-.3.6-.4.9-.4h3.8c.4,0,.7.1.9.4.3.3.4.6.4.9v32.5c0,.4-.1.7-.4.9"/>
    <path class="st2" d="M198,29.9c-.3-.3-.6-.4-.9-.4h-3.8c-.4,0-.7.1-.9.4-.3.3-.4.6-.4.9v1.1c-.7-.8-1.7-1.5-2.9-2.1-1.2-.6-2.7-.9-4.6-.9s-4,.5-5.7,1.6c-1.6,1.1-2.9,2.5-3.8,4.3-.9,1.8-1.4,3.7-1.5,5.8v1.7s0,1.7,0,1.7c0,2.1.6,4,1.5,5.8.9,1.8,2.2,3.2,3.8,4.3,1.6,1.1,3.5,1.6,5.7,1.6s3.3-.3,4.6-.9c1.2-.6,2.2-1.3,2.9-2.1v1.1c0,.4.1.7.4.9.3.3.6.4.9.4h3.8c.4,0,.7-.1.9-.4.3-.3.4-.6.4-.9v-23.1c0-.4-.1-.7-.4-.9M191.9,44.3c-.2,1.7-.8,3-1.9,4-1.1,1-2.5,1.5-4.1,1.5s-3.1-.5-4.2-1.5c-1.1-1-1.7-2.5-1.9-4.6,0-.3,0-.8,0-1.4s0-1.1,0-1.4c.2-2,.8-3.6,1.9-4.6,1.1-1,2.5-1.5,4.2-1.5s3,.5,4.1,1.5c1.1,1,1.7,2.4,1.9,4,0,.7,0,1.3,0,1.9s0,1.2,0,1.9"/>
    <path class="st2" d="M73.5,64.4l-9.7,9.7c-12.2,12.2-31.9,12.2-44,0l-9.7-9.7c-12.2-12.2-12.2-31.9,0-44l9.7-9.7c12.2-12.2,31.9-12.2,44,0l9.7,9.7c12.2,12.2,12.2,31.9,0,44"/>
    <rect class="st12" x="34.5" y="63.5" width="9.3" height="2.8" transform="translate(-32.7 88.8) rotate(-77.3)"/>
    <rect class="st3" x="41.8" y="42.1" width="9.3" height="2.8" transform="translate(-12.4 67.5) rotate(-65.3)"/>
    <rect class="st6" x="30.2" y="61.5" width="9.3" height="2.8" transform="translate(-36.4 53.3) rotate(-53.3)"/>
    <rect class="st1" x="27.1" y="58" width="9.3" height="2.8" transform="translate(-25 23.1) rotate(-29.3)"/>
    <rect class="st10" x="25.7" y="53.5" width="9.3" height="2.8" transform="translate(-4.9 3) rotate(-5.3)"/>
    <rect class="st4" x="42.5" y="60.3" width="2.8" height="9.3" transform="translate(-11.9 9.9) rotate(-11.3)"/>
    <rect class="st9" x="46.9" y="58.4" width="2.8" height="9.3" transform="translate(-27.6 39.5) rotate(-35.3)"/>
    <rect class="st7" x="50.1" y="54.9" width="2.8" height="9.3" transform="translate(-26.1 73.4) rotate(-59.3)"/>
    <rect class="st5" x="51.6" y="50.4" width="2.8" height="9.3" transform="translate(-7.9 101.3) rotate(-83.3)"/>
    <rect class="st8" x="47.9" y="49" width="9.3" height="2.8" transform="translate(-12.6 17.9) rotate(-17.3)"/>
    <rect class="st0" x="45.6" y="44.9" width="9.3" height="2.8" transform="translate(-18 44.7) rotate(-41.3)"/>
    <rect class="st12" x="39.8" y="18.5" width="9.3" height="2.8" transform="translate(15.3 58.9) rotate(-77.3)"/>
    <rect class="st3" x="32.5" y="40" width="9.3" height="2.8" transform="translate(-15.9 57.9) rotate(-65.3)"/>
    <rect class="st6" x="44.1" y="20.5" width="9.3" height="2.8" transform="translate(2.1 47.9) rotate(-53.3)"/>
    <rect class="st1" x="47.2" y="24.1" width="9.3" height="2.8" transform="translate(-5.8 28.7) rotate(-29.3)"/>
    <rect class="st10" x="48.6" y="28.6" width="9.3" height="2.8" transform="translate(-2.5 5.1) rotate(-5.3)"/>
    <rect class="st4" x="38.3" y="15.2" width="2.8" height="9.3" transform="translate(-3.1 8.2) rotate(-11.3)"/>
    <rect class="st9" x="34" y="17" width="2.8" height="9.3" transform="translate(-6 24.4) rotate(-35.3)"/>
    <rect class="st7" x="30.8" y="20.5" width="2.8" height="9.3" transform="translate(-5.9 40) rotate(-59.3)"/>
    <rect class="st5" x="29.3" y="25" width="2.8" height="9.3" transform="translate(-2.4 56.7) rotate(-83.3)"/>
    <rect class="st8" x="26.4" y="33" width="9.3" height="2.8" transform="translate(-8.8 10.8) rotate(-17.3)"/>
    <rect class="st0" x="28.7" y="37.1" width="9.3" height="2.8" transform="translate(-17.1 31.6) rotate(-41.3)"/>
    <polygon class="st3" points="43.1 47.1 43.1 47.1 43.2 37.7 40.5 37.7 40.5 37.7 40.5 37.7 40.4 47 43.1 47.1 43.1 47.1"/>
  </g>
  <g>
    <g>
      <path class="st2" d="M126.9,74c-.5-.6-.8-1.5-.8-2.4v-.4s0-.4,0-.4c0-1,.3-1.8.8-2.4.5-.6,1.2-1,2.2-1s1.7.3,2.3,1v-3.2c0,0,0-.2,0-.2,0,0,.1,0,.2,0h.7c0,0,.2,0,.2,0,0,0,0,.1,0,.2v9.4c0,0,0,.2,0,.2s-.1,0-.2,0h-.6c0,0-.2,0-.2,0s0-.1,0-.2v-.6c-.5.7-1.3,1.1-2.3,1.1s-1.7-.3-2.2-1ZM130.9,73.1c.3-.4.5-.9.5-1.5,0-.1,0-.3,0-.5s0-.4,0-.6c0-.6-.2-1-.5-1.5-.3-.4-.8-.6-1.5-.6s-1.2.2-1.5.6c-.3.4-.5,1-.5,1.6v.4c0,1.8.6,2.7,2,2.7s1.1-.2,1.5-.6Z"/>
      <path class="st2" d="M135.5,74c-.6-.6-.9-1.4-1-2.5v-.5s0-.5,0-.5c0-1,.4-1.8,1-2.4.6-.6,1.3-.9,2.3-.9s1.9.3,2.4,1c.6.7.9,1.6.9,2.7v.2c0,0,0,.2,0,.2s-.1,0-.2,0h-4.9c0,.7.2,1.3.6,1.7.3.4.8.6,1.4.6s.8,0,1.1-.3c.3-.2.5-.4.6-.5,0-.1.1-.2.2-.2,0,0,.1,0,.2,0h.7c0,0,.2,0,.2,0,0,0,0,.1,0,.2,0,.2-.1.5-.4.7s-.6.5-1.1.8-1,.3-1.6.3c-1,0-1.7-.3-2.3-.9ZM139.7,70.6h0c0-.7-.2-1.2-.5-1.6-.4-.4-.8-.6-1.4-.6s-1.1.2-1.4.6c-.3.4-.5.9-.5,1.6h0s3.9,0,3.9,0Z"/>
      <path class="st2" d="M148.8,74.7c0,0,0-.1,0-.2v-7.9l-2.3,1.8c0,0-.1,0-.2,0s-.2,0-.2-.1l-.4-.5c0,0,0-.1,0-.2,0-.1,0-.2.1-.3l3.1-2.4c.1,0,.2,0,.4,0h.7c0,0,.2,0,.2,0s0,.1,0,.2v9.2c0,0,0,.2,0,.2s-.1,0-.2,0h-.7c0,0-.2,0-.2,0Z"/>
      <path class="st2" d="M153.8,74.6c-.6-.2-1-.6-1.3-1s-.5-1-.5-1.6.1-1,.4-1.5c.3-.4.6-.7,1.1-1-.4-.2-.7-.5-.9-.9-.2-.4-.3-.8-.3-1.2,0-.8.3-1.5.9-2,.6-.5,1.4-.7,2.4-.7s1.8.2,2.4.7c.6.5.9,1.1.9,1.9s-.1.9-.3,1.2c-.2.4-.5.6-.9.9.5.2.8.5,1.1,1,.3.4.4.9.4,1.5s-.2,1.1-.5,1.6c-.3.5-.7.8-1.3,1s-1.2.4-1.9.4-1.4-.1-1.9-.4ZM157.4,73.3c.4-.3.7-.8.7-1.3s-.2-1-.7-1.3c-.4-.3-1-.5-1.7-.5s-1.2.2-1.7.5c-.4.3-.7.8-.7,1.3s.2,1,.7,1.3c.4.3,1,.5,1.7.5s1.2-.2,1.7-.5ZM157.1,68.6c.4-.3.6-.7.6-1.1s-.2-.9-.6-1.1c-.4-.3-.9-.4-1.4-.4s-1.1.1-1.4.4-.6.7-.6,1.1.2.8.6,1.1c.4.3.9.4,1.4.4.6,0,1-.2,1.4-.4Z"/>
      <path class="st2" d="M165.5,74.6c-.4-.2-.7-.4-.9-.8-.2-.3-.3-.7-.3-1.1,0-.6.3-1.1.8-1.5s1.2-.7,2.1-.8l2.1-.3v-.4c0-1-.6-1.4-1.7-1.4s-.8,0-1,.3-.5.4-.6.6c0,0,0,.1-.1.2s-.1,0-.2,0h-.6c0,0-.2,0-.2,0s0-.1,0-.2c0-.2.1-.5.3-.8s.5-.5.9-.7c.4-.2.9-.3,1.6-.3,1.1,0,1.8.2,2.3.7.5.5.7,1.1.7,1.8v4.6c0,0,0,.2,0,.2s-.1,0-.2,0h-.6c0,0-.2,0-.2,0,0,0,0-.1,0-.2v-.6c-.2.3-.5.6-.9.8-.4.2-.9.3-1.5.3s-.9,0-1.3-.3ZM168.6,73.3c.4-.4.6-1,.6-1.7v-.4l-1.6.2c-.7,0-1.2.3-1.5.5-.3.2-.5.5-.5.8s.2.7.5.9c.3.2.7.3,1.1.3.6,0,1.1-.2,1.5-.6Z"/>
      <path class="st2" d="M172.6,74.7c0,0,0-.1,0-.2v-6.7c0,0,0-.2,0-.2s.1,0,.2,0h.7c0,0,.2,0,.2,0,0,0,0,.1,0,.2v.6c.3-.3.6-.6,1-.8.4-.2.8-.3,1.4-.3.9,0,1.6.3,2.1.9.5.6.8,1.3.8,2.3v4c0,0,0,.2,0,.2s-.1,0-.2,0h-.7c0,0-.2,0-.2,0,0,0,0-.1,0-.2v-3.9c0-.7-.2-1.2-.5-1.6-.3-.4-.8-.6-1.4-.6s-1.1.2-1.4.6c-.3.4-.5.9-.5,1.5v3.9c0,0,0,.2,0,.2s-.1,0-.2,0h-.7c0,0-.2,0-.2,0Z"/>
      <path class="st2" d="M181.1,66c0,0,0-.1,0-.2v-.8c0,0,0-.2,0-.2,0,0,.1,0,.2,0h.9c0,0,.2,0,.2,0s0,.1,0,.2v.8c0,0,0,.2,0,.2,0,0-.1,0-.2,0h-.9c0,0-.2,0-.2,0ZM181.2,74.7c0,0,0-.1,0-.2v-6.7c0,0,0-.2,0-.2s.1,0,.2,0h.7c0,0,.2,0,.2,0,0,0,0,.1,0,.2v6.7c0,0,0,.2,0,.2s-.1,0-.2,0h-.7c0,0-.2,0-.2,0Z"/>
      <path class="st2" d="M188.1,77.4c0,0,0-.1,0-.2v-9.4c0,0,0-.2,0-.2s.1,0,.2,0h.7c0,0,.2,0,.2,0,0,0,0,.1,0,.2v.6c.5-.7,1.3-1.1,2.3-1.1s1.7.3,2.2.9c.5.6.8,1.4.8,2.4,0,.1,0,.3,0,.5s0,.4,0,.5c0,1-.3,1.8-.8,2.4-.5.6-1.2.9-2.2.9s-1.7-.4-2.3-1.1v3.3c0,0,0,.2,0,.2,0,0-.1,0-.2,0h-.7c0,0-.2,0-.2,0ZM192.8,73.1c.3-.4.5-1,.5-1.6,0,0,0-.2,0-.4,0-1.8-.7-2.7-2-2.7s-1.1.2-1.5.6c-.3.4-.5.9-.5,1.5v.5s0,.6,0,.6c0,.6.2,1,.5,1.5s.8.6,1.5.6,1.2-.2,1.5-.6Z"/>
      <path class="st2" d="M197.2,74.6c-.4-.2-.7-.4-.9-.8-.2-.3-.3-.7-.3-1.1,0-.6.3-1.1.8-1.5s1.2-.7,2.1-.8l2.1-.3v-.4c0-1-.6-1.4-1.7-1.4s-.8,0-1,.3-.5.4-.6.6c0,0,0,.1-.1.2s-.1,0-.2,0h-.6c0,0-.2,0-.2,0s0-.1,0-.2c0-.2.1-.5.3-.8s.5-.5.9-.7c.4-.2.9-.3,1.6-.3,1.1,0,1.8.2,2.3.7.5.5.7,1.1.7,1.8v4.6c0,0,0,.2,0,.2s-.1,0-.2,0h-.6c0,0-.2,0-.2,0,0,0,0-.1,0-.2v-.6c-.2.3-.5.6-.9.8-.4.2-.9.3-1.5.3s-.9,0-1.3-.3ZM200.2,73.3c.4-.4.6-1,.6-1.7v-.4l-1.6.2c-.7,0-1.2.3-1.5.5-.3.2-.5.5-.5.8s.2.7.5.9c.3.2.7.3,1.1.3.6,0,1.1-.2,1.5-.6Z"/>
      <path class="st2" d="M204.3,74.7c0,0,0-.1,0-.2v-6.7c0,0,0-.2,0-.2,0,0,.1,0,.2,0h.7c0,0,.2,0,.2,0s0,.1,0,.2v.6c.4-.6,1-1,2-1h.6c0,0,.2,0,.2,0,0,0,0,.1,0,.2v.6c0,0,0,.2,0,.2,0,0-.1,0-.2,0h-.8c-.5,0-.9.1-1.2.4s-.4.7-.4,1.2v4.2c0,0,0,.2,0,.2,0,0-.1,0-.2,0h-.7c0,0-.2,0-.2,0Z"/>
      <path class="st2" d="M210.2,72.3v-3.7h-1.1c0,0-.2,0-.2,0,0,0,0-.1,0-.2v-.5c0,0,0-.2,0-.2s.1,0,.2,0h1.1v-2.4c0,0,0-.2,0-.2,0,0,.1,0,.2,0h.7c0,0,.2,0,.2,0,0,0,0,.1,0,.2v2.4h1.8c0,0,.2,0,.2,0,0,0,0,.1,0,.2v.5c0,0,0,.2,0,.2s-.1,0-.2,0h-1.8v3.6c0,.5,0,.8.2,1.1.2.2.4.4.8.4h.9c0,0,.2,0,.2,0,0,0,0,.1,0,.2v.5c0,0,0,.2,0,.2s-.1,0-.2,0h-1c-1.5,0-2.2-.8-2.2-2.5Z"/>
      <path class="st2" d="M215.7,74c-.6-.6-.9-1.4-1-2.5v-.5s0-.5,0-.5c0-1,.4-1.8,1-2.4.6-.6,1.3-.9,2.3-.9s1.9.3,2.4,1c.6.7.9,1.6.9,2.7v.2c0,0,0,.2,0,.2s-.1,0-.2,0h-4.9c0,.7.2,1.3.6,1.7.3.4.8.6,1.4.6s.8,0,1.1-.3c.3-.2.5-.4.6-.5,0-.1.1-.2.2-.2,0,0,.1,0,.2,0h.7c0,0,.2,0,.2,0,0,0,0,.1,0,.2,0,.2-.1.5-.4.7s-.6.5-1.1.8-1,.3-1.6.3c-1,0-1.7-.3-2.3-.9ZM220,70.6h0c0-.7-.2-1.2-.5-1.6-.4-.4-.8-.6-1.4-.6s-1.1.2-1.4.6c-.3.4-.5.9-.5,1.6h0s3.9,0,3.9,0Z"/>
      <path class="st2" d="M226.9,74c-.5-.6-.8-1.5-.8-2.4v-.4s0-.4,0-.4c0-1,.3-1.8.8-2.4.5-.6,1.2-1,2.2-1s1.7.3,2.3,1v-3.2c0,0,0-.2,0-.2,0,0,.1,0,.2,0h.7c0,0,.2,0,.2,0,0,0,0,.1,0,.2v9.4c0,0,0,.2,0,.2s-.1,0-.2,0h-.6c0,0-.2,0-.2,0s0-.1,0-.2v-.6c-.5.7-1.3,1.1-2.3,1.1s-1.7-.3-2.2-1ZM230.9,73.1c.3-.4.5-.9.5-1.5,0-.1,0-.3,0-.5s0-.4,0-.6c0-.6-.2-1-.5-1.5-.3-.4-.8-.6-1.5-.6s-1.2.2-1.5.6c-.3.4-.5,1-.5,1.6v.4c0,1.8.6,2.7,2,2.7s1.1-.2,1.5-.6Z"/>
      <path class="st2" d="M234.9,66c0,0,0-.1,0-.2v-.8c0,0,0-.2,0-.2,0,0,.1,0,.2,0h.9c0,0,.2,0,.2,0s0,.1,0,.2v.8c0,0,0,.2,0,.2,0,0-.1,0-.2,0h-.9c0,0-.2,0-.2,0ZM235,74.7c0,0,0-.1,0-.2v-6.7c0,0,0-.2,0-.2s.1,0,.2,0h.7c0,0,.2,0,.2,0,0,0,0,.1,0,.2v6.7c0,0,0,.2,0,.2s-.1,0-.2,0h-.7c0,0-.2,0-.2,0Z"/>
      <path class="st2" d="M238.4,74.7c0,0,0-.1,0-.2v-6.7c0,0,0-.2,0-.2s.1,0,.2,0h.7c0,0,.2,0,.2,0,0,0,0,.1,0,.2v.6c.3-.3.6-.6,1-.8.4-.2.8-.3,1.4-.3.9,0,1.6.3,2.1.9.5.6.8,1.3.8,2.3v4c0,0,0,.2,0,.2s-.1,0-.2,0h-.7c0,0-.2,0-.2,0,0,0,0-.1,0-.2v-3.9c0-.7-.2-1.2-.5-1.6-.3-.4-.8-.6-1.4-.6s-1.1.2-1.4.6c-.3.4-.5.9-.5,1.5v3.9c0,0,0,.2,0,.2s-.1,0-.2,0h-.7c0,0-.2,0-.2,0Z"/>
      <path class="st2" d="M250.9,74c-.6-.6-.9-1.4-1-2.5v-.5s0-.5,0-.5c0-1,.4-1.8,1-2.4.6-.6,1.3-.9,2.3-.9s1.9.3,2.4,1c.6.7.9,1.6.9,2.7v.2c0,0,0,.2,0,.2s-.1,0-.2,0h-4.9c0,.7.2,1.3.6,1.7.3.4.8.6,1.4.6s.8,0,1.1-.3c.3-.2.5-.4.6-.5,0-.1.1-.2.2-.2,0,0,.1,0,.2,0h.7c0,0,.2,0,.2,0,0,0,0,.1,0,.2,0,.2-.1.5-.4.7s-.6.5-1.1.8-1,.3-1.6.3c-1,0-1.7-.3-2.3-.9ZM255.2,70.6h0c0-.7-.2-1.2-.5-1.6-.4-.4-.8-.6-1.4-.6s-1.1.2-1.4.6c-.3.4-.5.9-.5,1.6h0s3.9,0,3.9,0Z"/>
      <path class="st2" d="M258.8,74.1c-.6-.6-.9-1.4-.9-2.4v-.6s0-.6,0-.6c0-1,.3-1.8.9-2.4.6-.6,1.4-.9,2.4-.9s1.3.1,1.7.4c.5.2.8.5,1.1.9.2.4.4.7.4,1.1,0,0,0,.2,0,.2s-.1,0-.2,0h-.7c0,0-.2,0-.2,0,0,0,0-.1-.1-.2-.2-.5-.4-.8-.7-1-.3-.2-.7-.3-1.1-.3s-1,.2-1.4.5c-.3.4-.5.9-.6,1.7v.5s0,.5,0,.5c0,.8.2,1.3.6,1.7.3.4.8.5,1.4.5s.8,0,1.1-.3c.3-.2.5-.5.7-1,0-.1,0-.2.1-.2,0,0,.1,0,.2,0h.7c0,0,.2,0,.2,0,0,0,0,.1,0,.2,0,.3-.1.7-.4,1.1-.2.4-.6.7-1,.9-.5.2-1,.4-1.7.4-1,0-1.8-.3-2.4-.9Z"/>
      <path class="st2" d="M266.1,74.7c0,0,0-.1,0-.2v-9.4c0,0,0-.2,0-.2s.1,0,.2,0h.7c0,0,.2,0,.2,0,0,0,0,.1,0,.2v3.3c.3-.3.6-.6,1-.8.4-.2.8-.3,1.4-.3.9,0,1.6.3,2.1.9.5.6.8,1.3.8,2.3v4c0,0,0,.2,0,.2s-.1,0-.2,0h-.7c0,0-.2,0-.2,0s0-.1,0-.2v-3.9c0-.7-.2-1.2-.5-1.6-.3-.4-.8-.6-1.4-.6s-1.1.2-1.4.6c-.4.4-.5.9-.5,1.5v3.9c0,0,0,.2,0,.2s-.1,0-.2,0h-.7c0,0-.2,0-.2,0Z"/>
      <path class="st2" d="M274.6,66c0,0,0-.1,0-.2v-.8c0,0,0-.2,0-.2,0,0,.1,0,.2,0h.9c0,0,.2,0,.2,0s0,.1,0,.2v.8c0,0,0,.2,0,.2,0,0-.1,0-.2,0h-.9c0,0-.2,0-.2,0ZM274.7,74.7c0,0,0-.1,0-.2v-6.7c0,0,0-.2,0-.2s.1,0,.2,0h.7c0,0,.2,0,.2,0,0,0,0,.1,0,.2v6.7c0,0,0,.2,0,.2s-.1,0-.2,0h-.7c0,0-.2,0-.2,0Z"/>
      <path class="st2" d="M278.2,77.4c0,0,0-.1,0-.2v-9.4c0,0,0-.2,0-.2s.1,0,.2,0h.7c0,0,.2,0,.2,0,0,0,0,.1,0,.2v.6c.5-.7,1.3-1.1,2.3-1.1s1.7.3,2.2.9c.5.6.8,1.4.8,2.4,0,.1,0,.3,0,.5s0,.4,0,.5c0,1-.3,1.8-.8,2.4-.5.6-1.2.9-2.2.9s-1.7-.4-2.3-1.1v3.3c0,0,0,.2,0,.2,0,0-.1,0-.2,0h-.7c0,0-.2,0-.2,0ZM282.9,73.1c.3-.4.5-1,.5-1.6,0,0,0-.2,0-.4,0-1.8-.7-2.7-2-2.7s-1.1.2-1.5.6c-.3.4-.5.9-.5,1.5v.5s0,.6,0,.6c0,.6.2,1,.5,1.5s.8.6,1.5.6,1.2-.2,1.5-.6Z"/>
      <path class="st2" d="M287.2,74.6c-.4-.2-.7-.4-.9-.8-.2-.3-.3-.7-.3-1.1,0-.6.3-1.1.8-1.5s1.2-.7,2.1-.8l2.1-.3v-.4c0-1-.6-1.4-1.7-1.4s-.8,0-1,.3-.5.4-.6.6c0,0,0,.1-.1.2s-.1,0-.2,0h-.6c0,0-.2,0-.2,0s0-.1,0-.2c0-.2.1-.5.3-.8s.5-.5.9-.7c.4-.2.9-.3,1.6-.3,1.1,0,1.8.2,2.3.7.5.5.7,1.1.7,1.8v4.6c0,0,0,.2,0,.2s-.1,0-.2,0h-.6c0,0-.2,0-.2,0,0,0,0-.1,0-.2v-.6c-.2.3-.5.6-.9.8-.4.2-.9.3-1.5.3s-.9,0-1.3-.3ZM290.3,73.3c.4-.4.6-1,.6-1.7v-.4l-1.6.2c-.7,0-1.2.3-1.5.5-.3.2-.5.5-.5.8s.2.7.5.9c.3.2.7.3,1.1.3.6,0,1.1-.2,1.5-.6Z"/>
      <path class="st2" d="M298.1,72.3v-3.7h-1.1c0,0-.2,0-.2,0,0,0,0-.1,0-.2v-.5c0,0,0-.2,0-.2s.1,0,.2,0h1.1v-2.4c0,0,0-.2,0-.2,0,0,.1,0,.2,0h.7c0,0,.2,0,.2,0,0,0,0,.1,0,.2v2.4h1.8c0,0,.2,0,.2,0,0,0,0,.1,0,.2v.5c0,0,0,.2,0,.2s-.1,0-.2,0h-1.8v3.6c0,.5,0,.8.2,1.1.2.2.4.4.8.4h.9c0,0,.2,0,.2,0,0,0,0,.1,0,.2v.5c0,0,0,.2,0,.2s-.1,0-.2,0h-1c-1.5,0-2.2-.8-2.2-2.5Z"/>
      <path class="st2" d="M303.7,74.6c-.4-.2-.7-.4-.9-.8-.2-.3-.3-.7-.3-1.1,0-.6.3-1.1.8-1.5s1.2-.7,2.1-.8l2.1-.3v-.4c0-1-.6-1.4-1.7-1.4s-.8,0-1,.3-.5.4-.6.6c0,0,0,.1-.1.2s-.1,0-.2,0h-.6c0,0-.2,0-.2,0s0-.1,0-.2c0-.2.1-.5.3-.8s.5-.5.9-.7c.4-.2.9-.3,1.6-.3,1.1,0,1.8.2,2.3.7.5.5.7,1.1.7,1.8v4.6c0,0,0,.2,0,.2s-.1,0-.2,0h-.6c0,0-.2,0-.2,0,0,0,0-.1,0-.2v-.6c-.2.3-.5.6-.9.8-.4.2-.9.3-1.5.3s-.9,0-1.3-.3ZM306.8,73.3c.4-.4.6-1,.6-1.7v-.4l-1.6.2c-.7,0-1.2.3-1.5.5-.3.2-.5.5-.5.8s.2.7.5.9c.3.2.7.3,1.1.3.6,0,1.1-.2,1.5-.6Z"/>
    </g>
    <path class="st11" d="M108.3,64.3c-1,0-2,.3-2.8,1.1-1.6,1.6-1.5,4.1,0,5.6l6.1,6.5,6.1-6.5c1.5-1.6,1.6-4.1,0-5.6-1.6-1.5-4.1-1.5-5.6,0l-.5.5-.5-.5c-.8-.8-1.8-1.1-2.8-1.1Z"/>
  </g>
</svg>